<svg width="410" height="347" viewBox="0 0 410 347" fill="none" xmlns="http://www.w3.org/2000/svg">
<path d="M205.284 -62C243.195 -62 277.693 -53.174 308.779 -35.5221C340.245 -18.2456 364.887 5.97888 382.705 37.1515C400.901 68.3242 410 103.44 410 142.5C410 181.56 400.901 216.676 382.705 247.849C364.508 279.021 339.676 303.433 308.211 321.085C277.124 338.362 242.816 347 205.284 347C167.753 347 133.255 338.362 101.789 321.085C70.3236 303.433 45.4924 279.021 27.2954 247.849C9.09847 216.676 2.39304e-06 181.56 2.00927e-06 142.5C1.6255e-06 103.44 9.09847 68.3242 27.2954 37.1515C45.4924 5.97888 70.3236 -18.2456 101.789 -35.522C133.255 -53.174 167.753 -62 205.284 -62ZM205.284 40.5317C176.852 40.5317 154.484 49.7333 138.183 68.1364C121.882 86.1639 113.731 110.952 113.731 142.5C113.731 173.297 121.882 197.897 138.183 216.3C154.484 234.703 176.852 243.905 205.284 243.905C233.338 243.905 255.515 234.703 271.817 216.3C288.118 197.897 296.269 173.297 296.269 142.5C296.269 110.952 288.118 86.1639 271.817 68.1364C255.895 49.7333 233.717 40.5317 205.284 40.5317Z" fill="url(#paint0_linear_4777_16923)"/>
<defs>
<linearGradient id="paint0_linear_4777_16923" x1="0" y1="-62" x2="408.999" y2="347.999" gradientUnits="userSpaceOnUse">
<stop stop-color="#7927FF"/>
<stop offset="1" stop-color="#440398"/>
</linearGradient>
</defs>
</svg>
